# xmcd
#
# Track frame offsets: 
#        150
#        16138
#        32450
#        47450
#        63082
#        78753
#        94201
#        108567
#        122127
#        139077
#
# Disc length: 2027 seconds
#
# Revision: 0
# Processed by: cddbd v1.5.2PL0 Copyright (c) Steve Scherf et al.
# Submitted via: ExactAudioCopyFreeDBPlugin 1.0
#
DISCID=7207e90a
DTITLE=Danielle Bradbery - I don't believe we've met
DYEAR=2017
DGENRE=Country
TTITLE0=Sway
TTITLE1=Potential
TTITLE2=What Are We Doing
TTITLE3=Worth It
TTITLE4=Can't Stay Mad
TTITLE5=Messy
TTITLE6=Red Wine and White Couch
TTITLE7=Hello Summer
TTITLE8=Human Diary
TTITLE9=Laying Low
EXTD=
EXTT0=
EXTT1=
EXTT2=
EXTT3=
EXTT4=
EXTT5=
EXTT6=
EXTT7=
EXTT8=
EXTT9=
PLAYORDER=
